<svg viewBox="0 0 817 220" fill="none" xmlns="http://www.w3.org/2000/svg">
<path d="M288.883 220.001L249.604 0.000488281H213.153L78.9766 220.001H108.514L143.394 162.172H251.175L261.545 220.001H288.883ZM226.665 24.2005L246.776 136.401H159.105L226.665 24.2005Z" fill="currentColor"/>
<path d="M379.276 220.001V128.858L458.462 0.000488281H426.724L365.764 100.886L304.489 0.000488281H271.809L350.995 128.858V220.001H379.276Z" fill="currentColor"/>
<path d="M635.409 220.001V194.229H502.489V119.743H613.413V93.9719H502.489V25.7719H632.267V0.000488281H474.208V220.001H635.409Z" fill="currentColor"/>
<path d="M682.464 220.001V130.429H764.792C779.561 130.429 784.275 135.143 784.275 149.915V220.001H812.556V144.572C812.556 122.572 804.386 114.086 780.504 114.086C800.615 107.172 815.698 86.7434 815.698 59.4005C815.698 25.1434 787.103 0.000488281 747.196 0.000488281H654.183V220.001H682.464ZM682.464 25.7719H742.796C770.763 25.7719 787.417 39.2862 787.417 63.4862C787.417 87.3719 769.192 104.658 742.796 104.658H682.464V25.7719Z" fill="currentColor"/>
<path d="M105.686 220V194.229H28.2808V0H0V220H105.686Z" fill="currentColor"/>
</svg>
